<?xml version="1.0" encoding="UTF-8"?>
<svg id="_레이어_2" data-name="레이어 2" xmlns="http://www.w3.org/2000/svg" xmlns:xlink="http://www.w3.org/1999/xlink" viewBox="0 0 451.55 167.3">
  <defs>
    <style>
      .cls-1 {
        fill: #fff;
      }

      .cls-2 {
        fill: url(#_무제_그라디언트_353-3);
      }

      .cls-3 {
        fill: url(#_무제_그라디언트_353);
      }

      .cls-4 {
        fill: url(#_무제_그라디언트_353-2);
      }

      .cls-5 {
        fill: url(#_무제_그라디언트_353-5);
      }

      .cls-6 {
        fill: url(#_무제_그라디언트_353-4);
      }
    </style>
    <linearGradient id="_무제_그라디언트_353" data-name="무제 그라디언트 353" x1="391.9" y1="233.39" x2="33.86" y2="103.09" gradientUnits="userSpaceOnUse">
      <stop offset="0" stop-color="#1fffff"/>
      <stop offset="1" stop-color="#00009a"/>
    </linearGradient>
    <linearGradient id="_무제_그라디언트_353-2" data-name="무제 그라디언트 353" x1="411.94" y1="178.33" x2="53.9" y2="48.02" xlink:href="#_무제_그라디언트_353"/>
    <linearGradient id="_무제_그라디언트_353-3" data-name="무제 그라디언트 353" x1="331.14" y1="69.06" x2="320.27" y2="64.45" xlink:href="#_무제_그라디언트_353"/>
    <linearGradient id="_무제_그라디언트_353-4" data-name="무제 그라디언트 353" x1="331.34" y1="83.61" x2="319.36" y2="78.52" xlink:href="#_무제_그라디언트_353"/>
    <linearGradient id="_무제_그라디언트_353-5" data-name="무제 그라디언트 353" x1="351.67" y1="58.65" x2="310.48" y2="41.17" xlink:href="#_무제_그라디언트_353"/>
  </defs>
  <g id="_레이어_1-2" data-name="레이어 1">
    <g>
      <g>
        <path class="cls-3" d="M108.26,98.68c2.17-3.06,3.76-6.34,4.77-9.82,1.02-3.48,1.52-7.22,1.52-11.2,0-3.58-.46-6.92-1.38-10.05-.93-3.12-2.22-5.85-3.89-8.17-1.66-2.32-3.74-4.42-6.24-6.29-2.5-1.88-5.58-3.47-9.24-4.78-3.66-1.31-7.73-2.17-12.19-2.59-5.95-.59-12.74-.89-20.35-.89l-55.44.53c0,7.27-.12,17.04-.36,29.33-.24,12.3-.59,23.98-1.07,35.05-.48,11.07-1.05,20.8-1.7,29.19-.66,8.4-1.56,17.83-2.69,28.31,9-.12,15.23-.18,18.68-.18,2.98,0,9.45.06,19.4.18.18-16.91.56-34.14,1.14-51.7.59-17.56,1.27-32.44,2.03-44.64,2.98-.06,5.58-.13,7.81-.22,2.23-.09,4.39-.14,6.48-.14,6.12,0,10.66.48,13.61,1.43s5.1,2.4,6.47,4.33c1.37,1.94,2.06,4.18,2.06,6.74,0,3.04-.91,5.93-2.73,8.66-1.81,2.74-4.49,4.77-8.03,6.07-3.54,1.31-7.49,1.97-11.83,1.97-3.1,0-6.25-.3-9.46-.89l9.2,25.26c2.8,7.62,4.92,13.55,6.35,17.77.71,1.91,1.58,4.61,2.59,8.13,2.5,8.39,4.23,14.13,5.19,17.23,9.75-.12,16.77-.18,21.05-.18,3.39,0,9.99.06,19.81.18-1.37-3.34-2.32-5.57-2.86-6.7l-11.96-26.16c-1.49-3.27-2.89-6.49-4.2-9.64l-4.64-11.34c5.95-2.32,10.58-4.6,13.88-6.83,3.31-2.23,6.04-4.88,8.22-7.95Z"/>
        <g>
          <path class="cls-4" d="M116.87,45.42l.09,7.86c0,5.6-.34,16.98-1.03,34.15-.69,17.18-1.37,30.94-2.06,41.3-.69,10.35-1.78,23.21-3.27,38.57l12.68-.09,39.29-.09c17.32,0,33.24.06,47.76.18.48-9.41,1.07-18.51,1.79-27.32-6.43.41-11.01.65-13.74.71l-18.47.45c-9.52.18-15.8.26-18.83.26h-10.26l1.06-21.69c10.17-.42,19.37-.63,27.58-.63,5.53,0,21.44.06,31.73.18.54-10.53,1.1-19.61,1.7-27.23-14.41.42-31.28.63-34.62.63-9.34,0-17.53-.09-24.56-.27l1.09-20.54c6.37-.23,11.05-.37,14.06-.4,3.01-.03,8.79-.04,17.37-.04,6.49,0,14.69-.27,23.88-.08l8.08,22.31,21.8,62.76,3.3,10.9c11.07-.12,18.61-.18,22.59-.18,4.29,0,11.43.06,21.43.18,3.69-8.16,7.02-15.21,10-21.16l18.07-35.86,6.15-12.2c-4.18-6.8-6.88-14.49-7.88-22.65-1.27-10.35.3-20.61,4.46-29.89-2.95-.04-6.18-.07-9.69-.12-1.49,3.82-2.57,6.53-3.26,8.14-.68,1.6-1.29,3.03-1.83,4.28l-1.78,3.9-29.35,64.37-4.1,10.27c-1.91-7.09-3.52-12.84-4.83-17.24l-13.15-42.27c-2.98-9.35-5.01-15.81-6.08-19.38-.78-2.74-1.85-6.76-3.22-12.07h-123.95Z"/>
          <path class="cls-2" d="M327.06,60.19l-.41,14.11c-.02-.15-.04-.31-.06-.46-.56-4.62-.39-9.21.47-13.65Z"/>
          <path class="cls-6" d="M326.23,88.76l.42-14.46c.42,3.2,1.19,6.26,2.26,9.17-.28.53-.55,1.06-.82,1.6l-1.86,3.69Z"/>
          <path class="cls-5" d="M348.71,45.42s-.04.08-.07.12c-.08.16-.17.33-.26.5-.04.07-.08.14-.12.22-1.47,2.73-2.98,5.58-4.53,8.53-.22.43-.45.86-.68,1.3-.99,1.87-1.98,3.77-3,5.72.54-2.65,1.42-5.23,2.61-7.68l-5.17-3.16-3.75-2.29c-.22.44-.44.88-.65,1.32l-2.05-1.25c-1.87,3.62-3.2,7.47-3.98,11.44l.43-14.6c.41.01.82.01,1.21.01h.53c.94,0,2.15-.01,3.62-.02.81,0,1.7-.01,2.67-.01.82-.01,1.7-.02,2.63-.03.84-.01,1.73-.02,2.67-.03,1.62-.02,3.38-.03,5.28-.06.37,0,.75-.01,1.14-.01.48-.01.97-.01,1.47-.02Z"/>
        </g>
      </g>
      <g>
        <g>
          <g>
            <path class="cls-1" d="M440.36,60.15c-2.23-18.16-11.39-34.36-25.8-45.62-14.41-11.26-32.35-16.23-50.5-14.01-16.45,2.02-31.3,9.73-42.31,21.88-1.15,1.26-2.24,2.57-3.3,3.92-2.31,2.95-4.35,6.05-6.12,9.27-2.75,5-4.84,10.28-6.25,15.74t-.01.02s-.01.02-.01.03v.02c-.86,3.36-1.47,6.8-1.81,10.27-.49,4.98-.44,10.06.19,15.15,1.41,11.44,5.57,22.11,12.06,31.25.51.72,1.04,1.44,1.58,2.14,3.47,4.52,7.55,8.63,12.16,12.23,12.16,9.5,26.83,14.53,42.02,14.53,2.81-.01,5.64-.18,8.48-.52,16.62-2.04,31.6-9.9,42.65-22.27,1.02-1.14,2.01-2.32,2.96-3.54,2.48-3.18,4.66-6.53,6.52-10.02,6.59-12.31,9.23-26.32,7.49-40.47ZM416.9,103.25c-.94,1.2-1.92,2.35-2.94,3.46-9.06,9.9-21.22,16.17-34.68,17.82-12.91,1.59-25.68-1.24-36.57-8-.56-.35-1.12-.71-1.68-1.08-1.16-.78-2.29-1.6-3.4-2.47-5.4-4.23-9.91-9.29-13.4-14.97-4.18-6.8-6.88-14.49-7.88-22.65-1.27-10.35.3-20.61,4.46-29.89.54-1.22,1.13-2.42,1.77-3.61,1.52-2.83,3.3-5.56,5.32-8.15,1.01-1.29,2.06-2.53,3.17-3.71,9.04-9.74,21.1-15.93,34.45-17.57,2.34-.28,4.68-.43,6.99-.43,11.02,0,21.7,3.21,30.93,9.31.56.36,1.1.74,1.64,1.12,0,0,.01,0,.01.01.71.5,1.39,1.01,2.08,1.55,5.94,4.64,10.8,10.3,14.41,16.67,3.6,6.37,5.95,13.46,6.87,20.95,1.41,11.48-.68,22.85-5.91,32.89-1.59,3.05-3.48,5.98-5.64,8.75Z"/>
            <path class="cls-1" d="M422.45,62.34c-1.79-14.56-9.65-26.91-20.71-34.85h0c-.54-.39-1.09-.76-1.65-1.12-9.64-6.36-21.49-9.45-33.82-7.94-12.1,1.48-22.69,7.17-30.47,15.41-3.17,3.35-5.87,7.12-8.01,11.2-.09.16-.17.31-.25.47-.01.03-.03.05-.04.08-4.43,8.65-6.42,18.67-5.14,29.03.61,5.01,1.94,9.75,3.88,14.14.4.93.83,1.83,1.29,2.72,3.95,7.7,9.8,14.18,16.86,18.91.55.37,1.11.73,1.68,1.07,0,0,.01,0,.01.01,7.73,4.75,16.77,7.45,26.29,7.45,2.04,0,4.11-.13,6.18-.38,12.2-1.5,22.85-7.26,30.65-15.6h.01c3.22-3.46,5.94-7.33,8.1-11.54,4.44-8.66,6.42-18.69,5.15-29.06ZM403.69,98.57c-6.68,6.96-15.7,11.75-26,13.02-1.79.22-3.56.33-5.32.33-8.11-.01-15.81-2.29-22.42-6.3h-.02c-.57-.35-1.13-.7-1.68-1.07-7.52-5.04-13.44-12.38-16.64-21.15-1.12-3.05-1.91-6.27-2.32-9.63-1.01-8.25.33-16.43,3.8-23.77.21-.44.43-.88.65-1.32.54-1.06,1.13-2.1,1.78-3.11,0-.02.02-.04.03-.06.8-1.3,1.68-2.55,2.63-3.77.95-1.22,1.96-2.38,3.03-3.48,6.88-7.13,15.93-11.66,25.9-12.88,1.79-.22,3.56-.33,5.32-.33,8.67,0,16.89,2.6,23.79,7.15.56.36,1.11.74,1.64,1.13,9.44,6.83,16.12,17.41,17.65,29.86,1.07,8.77-.56,17.26-4.25,24.63-1.96,3.95-4.52,7.57-7.57,10.75Z"/>
          </g>
          <g>
            <path class="cls-1" d="M395.3,65.67c-.37-3.06-1.33-5.95-2.81-8.55-1.47-2.61-3.45-4.91-5.87-6.82h-.01c-.53-.41-1.07-.8-1.63-1.16-3.75-2.45-8.07-3.73-12.53-3.73-.95,0-1.9.05-2.86.17-4.81.59-9.1,2.63-12.47,5.63-2.54,2.25-4.56,5.03-5.91,8.15-1.57,3.64-2.23,7.72-1.71,11.93.84,6.88,4.65,12.69,9.99,16.31.55.37,1.12.71,1.7,1.04,0,0,.01,0,.01.01,4.12,2.29,8.98,3.36,14.01,2.74,4.66-.57,8.94-2.5,12.39-5.55,1.08-.94,2.08-1.99,2.98-3.15,1.28-1.64,2.32-3.41,3.11-5.28,1.54-3.66,2.11-7.68,1.61-11.74Z"/>
            <path class="cls-1" d="M407.53,85.61c-1.19,2.43-2.64,4.75-4.34,6.93-.92,1.17-1.89,2.29-2.92,3.33-6.17,6.31-14.23,10.31-23.11,11.4-1.61.19-3.21.29-4.79.29-7.23,0-14.11-2.01-20.03-5.56-.57-.34-1.14-.7-1.69-1.07l3.34-5.04c-.65-.44-1.29-.9-1.92-1.39-6.95-5.43-11.37-13.24-12.44-22-.18-1.43-.26-2.86-.25-4.28.02-2.17.24-4.32.67-6.41.54-2.65,1.42-5.23,2.61-7.68l-5.17-3.16c.96-1.92,2.07-3.74,3.33-5.46.01-.01.02-.03.03-.04,1.14-1.57,2.4-3.05,3.76-4.44,5.98-6.06,13.95-10.22,23.03-11.33,9.28-1.14,18.47,1.02,26.19,6.1.55.37,1.1.74,1.63,1.14,0,0,.01,0,.01.01.34.24.66.48.99.74,8.22,6.43,13.45,15.68,14.72,26.04.93,7.61-.35,15.15-3.65,21.88Z"/>
            <path class="cls-1" d="M399.04,65.21c-.91-7.45-4.81-13.82-10.35-18.04-.53-.41-1.07-.79-1.63-1.16-5.12-3.34-11.4-4.97-17.93-4.17-5.68.69-10.87,3.12-14.98,6.95-1.04.96-2.01,2.02-2.9,3.16-1.33,1.69-2.43,3.51-3.29,5.42-2.04,4.46-2.82,9.4-2.2,14.38.98,8.02,5.42,14.79,11.65,18.98.55.38,1.12.73,1.7,1.05h.01c3.95,2.27,8.49,3.55,13.26,3.55,1.09,0,2.18-.07,3.29-.2,5.79-.71,10.93-3.23,14.92-6.93,2.7-2.48,4.86-5.5,6.35-8.87,1.49-3.33,2.3-7.01,2.3-10.82,0-1.09-.06-2.19-.2-3.3ZM385.02,83.79c-2.82,2.33-6.31,3.91-10.2,4.39-4.24.52-8.33-.35-11.82-2.25h-.01c-.59-.31-1.16-.66-1.71-1.04-4.58-3.1-7.85-8.09-8.58-13.99-.41-3.39.04-6.76,1.3-9.84.68-1.7,1.6-3.31,2.76-4.79.87-1.11,1.84-2.11,2.89-2.99,2.91-2.46,6.47-4.02,10.33-4.49.82-.1,1.63-.15,2.43-.15,3.93,0,7.65,1.17,10.78,3.21.56.36,1.1.75,1.62,1.16h.01c.23.2.45.38.67.58,3.54,3.1,5.99,7.46,6.61,12.48.42,3.39-.05,6.69-1.23,9.67-1.24,3.13-3.26,5.91-5.85,8.05Z"/>
          </g>
          <path class="cls-1" d="M375.38,67.24v.02c-.08.73-.47,1.59-1.26,2.69l-.45.62c-.3.31-.61.53-.93.67,0,0,0,0-.02,0-.7.3-1.46.21-2.3-.14-.87-.37-1.84-1.01-2.94-1.81l-.15-.09-4.08-2.49h-.01s-9.24-5.66-9.24-5.66l-2.79-1.7-3.25-1.99-2.21-1.35-1.36-.83-.66-.4-1.07-.66-5.17-3.16-3.75-2.29-5.04-3.08-.13-.08-.79-.48-5.2-3.18-10.25-6.27-18.89-11.54c-2.66-1.92-2.4-6.81.57-10.94l.45-.62c2.98-4.12,7.54-5.91,10.2-4l17.09,13.91,9.32,7.6,4.72,3.84,5.42,4.42,3.4,2.77,4.71,3.83.62.51.96.77.06.05,3.19,2.6,2.97,2.42,2.53,2.07,8.49,6.91,3.5,2.85c1.02.74,2.07,1.32,2.8,2,.48.44.81.92.92,1.51.04.22.05.45.02.69Z"/>
          <path class="cls-1" d="M367.93,66.53l-.43.64c-1.04,2.15.61,3.54,3.33,5.38l68.03,53.87c2.71,1.83,7.22-.1,10.06-4.31l.43-.64c2.84-4.21,2.95-9.12.23-10.95l-74.32-44.03c-2.71-1.83-4.49-4.16-7.34.05Z"/>
          <circle class="cls-1" cx="372.4" cy="68.48" r="9.33"/>
        </g>
        <path class="cls-1" d="M405.17,64.46c-1.14-9.31-6.07-17.24-13.06-22.44h0c-.53-.42-1.07-.8-1.63-1.15-6.3-4.13-14.04-6.14-22.09-5.16-7.28.89-13.91,4.1-19.06,9.15-.18.17-.35.34-.52.52-.05.05-.1.11-.16.16-.79.82-1.55,1.69-2.26,2.61-1.47,1.88-2.71,3.88-3.72,5.98-1.19,2.45-2.07,5.03-2.61,7.68-.43,2.09-.65,4.24-.67,6.41-.01,1.42.07,2.85.25,4.28,1.07,8.76,5.49,16.57,12.44,22,.63.49,1.27.95,1.92,1.39.55.38,1.11.73,1.69,1.07h.01c5.06,2.98,10.77,4.55,16.64,4.55,1.36,0,2.72-.09,4.09-.25,7.29-.9,13.92-4.11,19.07-9.18,1.04-1,2.02-2.1,2.93-3.27,1.54-1.97,2.84-4.08,3.88-6.3,2.63-5.57,3.64-11.78,2.87-18.05ZM400.55,81.47c-1.62,3.51-3.88,6.68-6.65,9.35-4.67,4.52-10.79,7.6-17.72,8.45-1.28.16-2.55.23-3.8.23-5.61,0-10.95-1.53-15.57-4.23h-.01c-.57-.33-1.14-.68-1.69-1.06-7.21-4.84-12.36-12.67-13.5-21.95-.36-2.95-.29-5.85.17-8.65.45-2.95,1.35-5.78,2.61-8.42,1.61-3.38,3.82-6.45,6.51-9.05.06-.06.12-.11.18-.17,4.65-4.42,10.7-7.43,17.54-8.27,1.29-.16,2.57-.24,3.84-.24,6.02,0,11.86,1.75,16.92,5.06.55.36,1.09.74,1.62,1.15,0,0,.01,0,.01,0,.17.11.32.23.49.36,6.53,5.1,10.68,12.44,11.69,20.67.73,5.94-.28,11.7-2.64,16.76Z"/>
        <polygon class="cls-1" points="406.06 20.97 405.09 22.44 401.74 27.49 401.73 27.49 397.86 33.33 395.47 36.95 392.11 42.02 391.01 43.68 388.69 47.17 386.62 50.3 386.61 50.3 384.82 53.02 378.96 61.85 375.71 66.76 375.38 67.24 375.38 67.26 372.74 71.24 371.51 73.09 368.85 77.11 363 85.93 361.2 88.65 359.12 91.78 356.81 95.27 356.8 95.27 355.69 96.96 355.68 96.96 352.34 102 349.95 105.62 346.07 111.47 342.71 116.53 340.72 119.54 339.05 118.43 341.03 115.45 344.38 110.39 348.25 104.55 350.65 100.93 353.99 95.89 355.11 94.21 357.41 90.73 359.49 87.6 361.28 84.89 367.09 76.14 369.89 71.91 370.42 71.11 374.06 65.62 374.44 65.04 377.39 60.6 383.19 51.85 384.98 49.14 387.06 46.01 389.38 42.52 390.47 40.87 393.83 35.8 396.22 32.2 400.08 26.37 403.44 21.31 404.39 19.87 406.06 20.97"/>
      </g>
    </g>
  </g>
</svg>